HIERARCHY
ROOT Hips
{
  OFFSET 279.157 85.6768 304.565
  CHANNELS 6 Xposition Yposition Zposition Zrotation Xrotation Yrotation
  JOINT LeftUpLeg
  {
    OFFSET 8.64259 1.95398 -2.38835
    CHANNELS 3 Zrotation Xrotation Yrotation
    JOINT LeftLeg
    {
      OFFSET 43.7702 0 0
      CHANNELS 3 Zrotation Xrotation Yrotation
      JOINT LeftFoot
      {
        OFFSET 40.6238 0 0
        CHANNELS 3 Zrotation Xrotation Yrotation
        JOINT LeftToeBase
        {
          OFFSET 12.7242 0 0
          CHANNELS 3 Zrotation Xrotation Yrotation
          End Site
          {
            OFFSET 0 0 0
          }
        }
      }
    }
  }
  JOINT RightUpLeg
  {
    OFFSET -8.2249 1.95398 -2.59336
    CHANNELS 3 Zrotation Xrotation Yrotation
    JOINT RightLeg
    {
      OFFSET 43.5653 0 0
      CHANNELS 3 Zrotation Xrotation Yrotation
      JOINT RightFoot
      {
        OFFSET 40.6238 0 0
        CHANNELS 3 Zrotation Xrotation Yrotation
        JOINT RightToeBase
        {
          OFFSET 12.7242 0 0
          CHANNELS 3 Zrotation Xrotation Yrotation
          End Site
          {
            OFFSET 0 0 0
          }
        }
      }
    }
  }
  JOINT Spine
  {
    OFFSET 0.165834 0.87714 6.61349
    CHANNELS 3 Zrotation Xrotation Yrotation
    JOINT Spine1
    {
      OFFSET 7.38963 1.71661e-005 0
      CHANNELS 3 Zrotation Xrotation Yrotation
      JOINT Spine2
      {
        OFFSET 11.9445 1.14441e-005 0
        CHANNELS 3 Zrotation Xrotation Yrotation
        JOINT Spine3
        {
          OFFSET 14.7254 4.19617e-005 0
          CHANNELS 3 Zrotation Xrotation Yrotation
          JOINT Spine4
          {
            OFFSET 10.9679 0 0
            CHANNELS 3 Zrotation Xrotation Yrotation
            JOINT RightShoulder
            {
              OFFSET 2.46616 -1.6653 3.69651
              CHANNELS 3 Zrotation Xrotation Yrotation
              JOINT RightArm
              {
                OFFSET 13.0012 0 0
                CHANNELS 3 Zrotation Xrotation Yrotation
                JOINT RightForeArm
                {
                  OFFSET 28.7848 1.52588e-005 0
                  CHANNELS 3 Zrotation Xrotation Yrotation
                  JOINT RightHand
                  {
                    OFFSET 26.5688 1.52588e-005 0
                    CHANNELS 3 Zrotation Xrotation Yrotation
                    End Site
                    {
                      OFFSET 0 0 0
                    }
                  }
                }
              }
            }
            JOINT LeftShoulder
            {
              OFFSET 2.38034 -1.29275 -3.7523
              CHANNELS 3 Zrotation Xrotation Yrotation
              JOINT LeftArm
              {
                OFFSET 16.3182 6.10351e-005 0
                CHANNELS 3 Zrotation Xrotation Yrotation
                JOINT LeftForeArm
                {
                  OFFSET 27.0901 0 0
                  CHANNELS 3 Zrotation Xrotation Yrotation
                  JOINT LeftHand
                  {
                    OFFSET 24.5451 1.52588e-005 0
                    CHANNELS 3 Zrotation Xrotation Yrotation
                    End Site
                    {
                      OFFSET 0 0 0
                    }
                  }
                }
              }
            }
            JOINT Neck
            {
              OFFSET 5.0226 -0.0266342 0
              CHANNELS 3 Zrotation Xrotation Yrotation
              JOINT Head
              {
                OFFSET 6.69364 2.86102e-005 0
                CHANNELS 3 Zrotation Xrotation Yrotation
                End Site
                {
                  OFFSET 0 0 0
                }
              }
            }
          }
        }
      }
    }
  }
}
MOTION
Frames:	6
Frame Time:	0.0416667
-45.7533 60.2234 37.9011 61.6945 43.5367 107.292 -43.8035 60.1775 -12.288 -119.443 53.8109 6.57292 55.5584 -0.820786 10.705 2.35109 -1.54461 -26.892 51.8009 56.3638 -176.921 -116.515 -22.9321 -3.85663 80.4521 -17.0621 -9.4377 14.5754 1.74402 12.2313 0.509811 12.8121 -90.0023 1.24916 1.01666 0.0284667 -10.4214 1.01691 -0.0163097 -32.9595 0.961088 0.33273 -12.9468 0.961089 0.332726 89.2437 -16.9965 -114.792 14.6382 19.5359 -46.8586 0.152544 -0.0607805 -16.363 -14.2565 2.55309 -26.2294 -91.738 -29.4605 69.8091 2.17298 -10.3363 -74.9958 4.72344 11.4644 -5.11947 -11.1479 1.36558 -23.1769 17.9035 -2.43022 -3.49203 -9.07946 -1.31377 -0.245938 
-45.9276 60.1961 38.2615 61.2808 43.8277 106.972 -44.7538 59.8423 -12.1782 -119.101 53.4303 6.47765 56.1058 -0.260443 10.8198 2.51657 -2.04622 -25.7037 52.8189 57.7509 -176.562 -115.773 -21.3517 -3.7819 83.614 -18.6496 -7.69849 16.9385 1.24834 11.9602 0.461366 12.6608 -90.0118 1.5519 0.916419 0.00314567 -10.1187 0.915671 -0.0372012 -32.6563 0.873085 0.278433 -12.6437 0.873111 0.278452 88.872 -17.4532 -115.395 12.1249 18.6422 -46.1607 1.11852 -0.574348 -15.2327 -14.5249 2.43822 -25.2418 -92.3812 -30.7182 69.0967 1.95503 -9.93841 -74.9188 4.43636 11.2834 -4.46788 -11.124 1.29837 -22.4357 20.7123 -2.30136 -2.5509 -11.2026 -1.32813 -1.01382 
-46.1423 60.3287 38.556 60.2606 43.8692 107.136 -46.5214 59.8439 -11.493 -118.57 54.0421 6.3862 57.5349 1.21917 11.9086 6.98634 -1.51012 -23.7776 54.9201 59.7672 -176.874 -114.077 -17.9234 -3.03652 89.7829 -20.9628 -3.46403 17.5038 0.927254 12.7829 0.394685 12.3755 -89.9436 2.12228 0.810015 0.127051 -9.5484 0.814817 0.0912898 -32.0853 0.734367 0.364627 -12.0726 0.734377 0.364632 88.8847 -18.0674 -114.982 11.8094 16.4161 -47.235 1.27915 -1.63083 -13.8476 -13.8087 2.1912 -24.9561 -92.6344 -30.0247 68.3444 0.647612 -9.04025 -73.7006 4.1223 12.1621 -3.63224 -14.5307 2.09691 -24.6949 23.4493 -2.64696 -3.02255 -13.2541 -1.48799 -0.24314 
-46.3707 60.5631 38.8056 59.6539 44.3303 107.262 -47.9085 59.3669 -10.6218 -118.144 55.7934 6.47806 57.5051 1.58681 13.4565 7.34107 -2.24692 -21.7362 54.9164 59.8647 -176.564 -113.255 -16.6517 -2.8973 91.3851 -21.8796 -3.22714 16.3816 0.851494 14.1711 0.371249 12.1301 -89.9422 2.61319 0.764121 0.124588 -9.05754 0.768838 0.0908334 -31.5942 0.691339 0.348478 -11.5816 0.69133 0.348487 88.1716 -19.5597 -115.722 8.49198 15.207 -46.6818 1.03619 -3.28466 -12.121 -15.9334 1.88649 -20.739 -93.1217 -30.0637 67.4494 -0.793469 -8.26575 -73.4182 3.99078 14.7951 -2.59598 -15.9718 2.35701 -24.6574 26.0214 -3.11 -3.54097 -14.2202 -1.82085 1.21784 
-46.4934 61.2265 38.7708 58.9989 44.2859 108.397 -48.478 59.7927 -9.76876 -116.15 54.9286 5.64701 57.9583 1.73408 11.5432 5.21206 -2.37636 -22.9424 56.022 59.8741 -177.535 -112.019 -18.2744 -2.5944 90.2674 -22.1259 -5.07112 15.7503 1.04266 13.9412 0.448263 11.8523 -90.0514 3.16933 0.875149 -0.0944492 -8.50134 0.870152 -0.132881 -31.0388 0.863074 0.172956 -11.0261 0.863073 0.172961 87.1718 -20.6771 -117.293 4.85886 15.0337 -44.7798 1.20091 -8.546 -11.2093 -13.7435 1.07762 -19.2171 -93.8214 -30.7196 66.4295 -2.62414 -7.78745 -72.5716 4.68351 18.1518 -3.44549 -16.9149 2.49073 -24.3487 27.0141 -3.35429 -3.33135 -13.957 -2.14878 1.70913 
-46.5589 62.6537 38.6647 57.2286 44.1485 109.613 -50.122 60.0264 -8.26397 -112.909 55.9059 4.09715 57.824 1.86719 11.8006 2.95302 -2.48816 -24.4527 56.4596 60.7355 -178.179 -109.47 -16.8189 -1.62512 90.5435 -20.3638 -1.62889 14.5243 2.0258 11.1863 0.425628 11.5749 -90.0781 3.72454 0.819034 -0.152632 -7.94618 0.811545 -0.188533 -30.4834 0.827046 0.100605 -10.4707 0.827036 0.100597 86.9409 -20.8565 -117.692 3.27698 14.6983 -43.6353 1.56758 -9.31917 -11.1117 -11.3175 0.824017 -20.4945 -94.0613 -31.3499 66.2594 -3.19498 -7.69518 -72.4748 5.00348 21.2943 -4.31695 -17.2404 2.59419 -24.7044 28.4642 -3.23832 -3.34129 -13.8492 -1.97125 1.58298 
